Coordinates
version=1
nRows=16
nColumns=40
inDegrees=yes

Units are S.I. units (second, meters, Newtons, ...)
Angles are in degrees.

endheader
time	pelvis_tilt	pelvis_list	pelvis_rotation	pelvis_tx	pelvis_ty	pelvis_tz	hip_flexion_r	hip_adduction_r	hip_rotation_r	knee_angle_r	knee_angle_r_beta	ankle_angle_r	subtalar_angle_r	mtp_angle_r	hip_flexion_l	hip_adduction_l	hip_rotation_l	knee_angle_l	knee_angle_l_beta	ankle_angle_l	subtalar_angle_l	mtp_angle_l	lumbar_extension	lumbar_bending	lumbar_rotation	arm_flex_r	arm_add_r	arm_rot_r	elbow_flex_r	pro_sup_r	wrist_flex_r	wrist_dev_r	arm_flex_l	arm_add_l	arm_rot_l	elbow_flex_l	pro_sup_l	wrist_flex_l	wrist_dev_l
      0.63000000	     -2.05467710	      1.95383502	     -0.80407203	     -0.80736525	      0.95202116	     -0.96557583	     -1.93816044	     -0.95213271	    -21.46998059	    -12.74475177	     -0.22243788	      9.73788646	      2.10639431	     -9.50479634	     23.96174384	      4.33694065	     17.67198461	    -15.41972083	     -0.26912490	     -2.03228890	      2.47690472	      8.82996614	     -6.21686393	     -2.69372413	      4.46896607	     10.07611712	    -14.66139674	    -10.69266279	     23.61301908	     89.95437384	      0.00000000	      0.00000000	     -6.16421304	     12.01147064	     21.78164273	     12.48261803	     89.95437384	      0.00000000	      0.00000000
      0.64000000	     -2.18790121	      1.75864338	     -0.99061312	     -0.79982883	      0.95053706	     -0.96529663	     -2.24967398	     -0.73839479	    -21.36785980	    -12.80215668	     -0.22343979	     10.06702982	      2.14588596	     -9.68437288	     24.47857562	      4.52459017	     17.75920781	    -14.07069616	     -0.24557998	     -2.49546047	      1.49319350	      8.81277816	     -6.04824723	     -2.55864649	      4.66268769	     10.55719695	    -14.62760585	    -10.40644865	     23.76512726	     89.95437384	      0.00000000	      0.00000000	     -6.15755304	     12.03161050	     21.78229430	     12.31792976	     89.95437384	      0.00000000	      0.00000000
      0.65000000	     -1.91433233	      1.86563318	     -1.41004073	     -0.79161659	      0.94962266	     -0.96492639	     -2.99040556	     -0.94842381	    -21.22413353	    -13.00841070	     -0.22703960	     10.36051267	      2.31751032	    -10.43427093	     24.42656540	      4.63534650	     19.34972211	    -12.79710416	     -0.22335160	     -3.45683240	     -0.87657702	      8.39081626	     -6.29124897	     -2.77580707	      5.03238572	     10.92434877	    -14.58201310	    -10.23884929	     24.11111060	     89.95437384	      0.00000000	      0.00000000	     -6.18716712	     12.07470321	     21.92724321	     12.24754843	     89.95437384	      0.00000000	      0.00000000
      0.66000000	     -2.04750259	      1.67059917	     -1.48964839	     -0.78372166	      0.94795168	     -0.96509743	     -3.36551925	     -0.76825004	    -21.34967953	    -13.05586906	     -0.22786790	     10.61353246	      2.24182138	    -10.48594118	     25.06140474	      4.77893242	     19.60631091	    -11.99833626	     -0.20941047	     -3.44053497	     -1.05941505	      8.36030596	     -6.10941235	     -2.62155186	      5.09825527	     11.34886242	    -14.49762008	    -10.17845372	     24.27897433	     89.95437384	      0.00000000	      0.00000000	     -6.25048259	     12.08257522	     21.87500971	     12.11825712	     89.95437384	      0.00000000	      0.00000000
      0.67000000	     -1.91648298	      1.79939718	     -1.88939460	     -0.77564923	      0.94693787	     -0.96489000	     -3.92831997	     -1.00492635	    -21.07217432	    -13.27974582	     -0.23177529	     11.00016350	      2.34229677	    -10.89829533	     24.90912578	      4.64658622	     20.13819447	    -10.41646852	     -0.18180167	     -4.49020129	     -2.45395714	      8.38727652	     -6.22675987	     -2.86935905	      5.44144191	     11.73609181	    -14.37787770	     -9.97271076	     24.48165542	     89.95437384	      0.00000000	      0.00000000	     -6.24451370	     12.12300111	     21.98271715	     12.00049626	     89.95437384	      0.00000000	      0.00000000
      0.68000000	     -1.87516667	      1.70430424	     -2.12913803	     -0.76742899	      0.94564387	     -0.96500986	     -4.46579741	     -0.98606655	    -20.99498942	    -13.41833558	     -0.23419414	     11.28834944	      2.48620204	    -11.10477959	     25.07177138	      4.69565365	     20.45442337	     -9.48896630	     -0.16561370	     -4.50272034	     -2.92350461	      8.28608497	     -6.22257721	     -2.84341666	      5.65091879	     12.07916079	    -14.24584049	    -10.05192171	     24.69839398	     89.95437384	      0.00000000	      0.00000000	     -6.30715590	     12.12995214	     21.98452118	     11.91004997	     89.95437384	      0.00000000	      0.00000000
      0.69000000	     -1.68777479	      1.74418350	     -2.37212495	     -0.75900518	      0.94460509	     -0.96511556	     -5.27264708	     -1.12606855	    -21.10587138	    -13.36110568	     -0.23319529	     11.51889301	      2.81446762	    -11.42540686	     25.02979064	      4.62217001	     21.00278742	     -8.69335843	     -0.15172773	     -4.70438043	     -3.23468882	      8.13525174	     -6.40072109	     -2.99649706	      5.89259764	     12.38255088	    -14.11197064	     -9.99449101	     24.91522582	     89.95437384	      0.00000000	      0.00000000	     -6.30639817	     12.16284933	     22.05730874	     11.82460484	     89.95437384	      0.00000000	      0.00000000
      0.70000000	     -1.76470212	      1.61262757	     -2.50979630	     -0.75059282	      0.94311153	     -0.96545113	     -5.70832265	     -1.07410452	    -21.26551940	    -13.47188219	     -0.23512870	     11.64048956	      2.77416042	    -11.43290822	     25.42692621	      4.72636499	     21.25653588	     -8.37655101	     -0.14619840	     -4.53163255	     -3.13255470	      8.04245143	     -6.25187866	     -2.92602643	      5.98586337	     12.62610863	    -13.95230171	     -9.95637698	     25.12697958	     89.95437384	      0.00000000	      0.00000000	     -6.45093429	     12.17352427	     22.03213140	     11.78994927	     89.95437384	      0.00000000	      0.00000000
      0.71000000	     -1.40093454	      1.80641373	     -2.79338631	     -0.74158772	      0.94243051	     -0.96595732	     -6.67402216	     -1.52553655	    -21.73096908	    -13.53913957	     -0.23630256	     11.87968152	      3.74425661	    -12.00583891	     25.05664802	      4.44513116	     21.72715595	     -7.82681294	     -0.13660366	     -4.63348959	     -2.97415342	      7.72739483	     -6.57239886	     -3.23387464	      6.18353430	     12.79871330	    -13.75118526	    -10.10146313	     25.51483339	     89.95437384	      0.00000000	      0.00000000	     -6.50489719	     12.17865684	     22.26799906	     11.69390018	     89.95437384	      0.00000000	      0.00000000
      0.72000000	     -1.50992105	      1.71882609	     -2.92787921	     -0.73287068	      0.94093551	     -0.96641861	     -7.11947646	     -1.53770806	    -21.83718750	    -13.63587176	     -0.23799086	     11.96483346	      3.70184183	    -11.96978134	     25.41842006	      4.52323021	     21.82100826	     -7.83730023	     -0.13678669	     -4.52193266	     -2.76901356	      7.63260618	     -6.39327223	     -3.22898647	      6.35244361	     12.91037632	    -13.60363126	    -10.02658697	     25.72052915	     89.95437384	      0.00000000	      0.00000000	     -6.63029520	     12.20603407	     22.20901880	     11.69833433	     89.95437384	      0.00000000	      0.00000000
      0.73000000	     -1.09008137	      1.97103965	     -3.07913537	     -0.72351502	      0.94034288	     -0.96737864	     -8.21177495	     -2.12234688	    -22.60843291	    -13.65882155	     -0.23839141	     12.09105825	      5.25761784	    -12.86828875	     25.04248428	      4.12652570	     21.95592150	     -7.84692007	     -0.13695459	     -4.49651221	     -2.04435562	      7.17717956	     -6.75912848	     -3.59188822	      6.45169299	     12.95338415	    -13.44283858	     -9.99498743	     26.10595224	     89.95437384	      0.00000000	      0.00000000	     -6.69433369	     12.25453213	     22.12081213	     11.59014993	     89.95437384	      0.00000000	      0.00000000
      0.74000000	     -1.21844853	      1.94085148	     -3.24554460	     -0.71443782	      0.93887190	     -0.96818785	     -8.52397377	     -2.27715327	    -22.48363937	    -14.01046079	     -0.24452867	     11.96962280	      5.09113152	    -12.69356282	     25.35683856	      4.14981565	     21.75454359	     -8.21133080	     -0.14331476	     -4.47002467	     -1.89269037	      7.05834713	     -6.50198707	     -3.62073683	      6.56298019	     12.96366302	    -13.25590510	     -9.92832600	     26.40593769	     89.95437384	      0.00000000	      0.00000000	     -6.98893730	     12.24182848	     22.05229567	     11.73363364	     89.95437384	      0.00000000	      0.00000000
      0.75000000	     -1.02581099	      2.08350622	     -3.40676134	     -0.70486415	      0.93806047	     -0.96925411	     -9.43250549	     -2.63574378	    -22.74961237	    -13.86201615	     -0.24193782	     12.18105797	      5.52266977	    -12.84149496	     25.35339567	      3.97699080	     22.07817384	     -8.91606201	     -0.15561464	     -4.04212440	     -1.16700143	      6.83367168	     -6.57397341	     -3.85703482	      6.75030923	     12.90129843	    -13.11648299	     -9.86548727	     26.62076213	     89.95437384	      0.00000000	      0.00000000	     -6.90564919	     12.29218519	     21.99266778	     11.27920387	     89.95437384	      0.00000000	      0.00000000
      0.76000000	     -0.92603799	      2.25953660	     -3.55433289	     -0.69510391	      0.93708866	     -0.97052093	    -10.12587430	     -3.09255096	    -22.91240046	    -14.01503022	     -0.24460842	     12.13573361	      5.87165806	    -12.89352028	     25.31526193	      3.72684563	     22.01568170	     -9.50108332	     -0.16582519	     -3.74373963	     -0.80033957	      6.64559137	     -6.51044861	     -4.10851779	      6.87253648	     12.83257766	    -12.95040897	     -9.79143956	     26.81372594	     89.95437384	      0.00000000	      0.00000000	     -7.03187919	     12.30869286	     21.97502528	     11.11329389	     89.95437384	      0.00000000	      0.00000000
      0.77000000	     -1.06574552	      2.24931508	     -3.71893860	     -0.68550429	      0.93585878	     -0.97185819	    -10.37329884	     -3.35495959	    -22.68934191	    -14.48357206	     -0.25278602	     11.88643034	      5.71035718	    -12.66954806	     25.45341401	      3.68269059	     21.62256959	    -10.02360922	     -0.17494498	     -3.77833972	     -0.71859841	      6.51997091	     -6.21149718	     -4.13689238	      6.98046825	     12.66546424	    -12.78923932	     -9.71840887	     27.11037281	     89.95437384	      0.00000000	      0.00000000	     -7.40873319	     12.25539400	     21.90925486	     11.33708700	     89.95437384	      0.00000000	      0.00000000
      0.78000000	     -0.64820301	      3.03801505	     -3.84627615	     -0.67476356	      0.93548768	     -0.97416358	    -11.24414879	     -4.99858273	    -24.63632370	    -15.23253512	     -0.26585789	     11.97184791	      9.24097855	    -14.97830128	     24.76674500	      2.52814696	     21.21107939	    -10.31135844	     -0.17996716	     -3.48836148	      0.68898188	      6.06399079	     -6.40049677	     -5.04288239	      7.04025898	     12.35029148	    -12.67474803	     -9.36933231	     27.46643574	     89.95437384	      0.00000000	      0.00000000	     -7.41826281	     12.28492713	     22.23546595	     10.96361545	     89.95437384	      0.00000000	      0.00000000
